<?xml version="1.0" encoding="UTF-8"?>
<svg xmlns="http://www.w3.org/2000/svg" xmlns:xlink="http://www.w3.org/1999/xlink" width="32px" height="32px" viewBox="0 0 32 32" version="1.1">
<g id="surface1">
<path style=" stroke:none;fill-rule:nonzero;fill:rgb(0%,0%,0%);fill-opacity:1;" d="M 30.667969 17.332031 L 29.332031 17.332031 C 28.535156 17.332031 28 16.800781 28 16 C 28 15.199219 28.535156 14.667969 29.332031 14.667969 L 30.667969 14.667969 C 31.464844 14.667969 32 15.199219 32 16 C 32 16.800781 31.464844 17.332031 30.667969 17.332031 Z M 30.667969 17.332031 "/>
<path style=" stroke:none;fill-rule:nonzero;fill:rgb(0%,0%,0%);fill-opacity:1;" d="M 2.667969 17.332031 L 1.332031 17.332031 C 0.535156 17.332031 0 16.800781 0 16 C 0 15.199219 0.535156 14.667969 1.332031 14.667969 L 2.667969 14.667969 C 3.464844 14.667969 4 15.199219 4 16 C 4 16.800781 3.464844 17.332031 2.667969 17.332031 Z M 2.667969 17.332031 "/>
<path style=" stroke:none;fill-rule:nonzero;fill:rgb(0%,0%,0%);fill-opacity:1;" d="M 16 4 C 15.199219 4 14.667969 3.464844 14.667969 2.667969 L 14.667969 1.332031 C 14.667969 0.535156 15.199219 0 16 0 C 16.800781 0 17.332031 0.535156 17.332031 1.332031 L 17.332031 2.667969 C 17.332031 3.464844 16.800781 4 16 4 Z M 16 4 "/>
<path style=" stroke:none;fill-rule:nonzero;fill:rgb(0%,0%,0%);fill-opacity:1;" d="M 16 32 C 15.199219 32 14.667969 31.464844 14.667969 30.667969 L 14.667969 29.332031 C 14.667969 28.535156 15.199219 28 16 28 C 16.800781 28 17.332031 28.535156 17.332031 29.332031 L 17.332031 30.667969 C 17.332031 31.464844 16.800781 32 16 32 Z M 16 32 "/>
<path style=" stroke:none;fill-rule:nonzero;fill:rgb(0%,0%,0%);fill-opacity:1;" d="M 25.464844 27.332031 L 24.535156 26.398438 C 24 25.867188 24 25.066406 24.535156 24.535156 C 25.066406 24 25.867188 24 26.398438 24.535156 L 27.332031 25.464844 C 27.867188 26 27.867188 26.800781 27.332031 27.332031 C 26.800781 27.867188 26 27.867188 25.464844 27.332031 Z M 25.464844 27.332031 "/>
<path style=" stroke:none;fill-rule:nonzero;fill:rgb(0%,0%,0%);fill-opacity:1;" d="M 5.601562 7.464844 L 4.667969 6.535156 C 4.132812 6 4.132812 5.199219 4.667969 4.667969 C 5.199219 4.132812 6 4.132812 6.535156 4.667969 L 7.464844 5.601562 C 8 6.132812 8 6.933594 7.464844 7.464844 C 6.933594 8 6.132812 8 5.601562 7.464844 Z M 5.601562 7.464844 "/>
<path style=" stroke:none;fill-rule:nonzero;fill:rgb(0%,0%,0%);fill-opacity:1;" d="M 24.535156 7.464844 C 24 6.933594 24 6.132812 24.535156 5.601562 L 25.464844 4.667969 C 26 4.132812 26.800781 4.132812 27.332031 4.667969 C 27.867188 5.199219 27.867188 6 27.332031 6.535156 L 26.398438 7.464844 C 25.867188 8 25.066406 8 24.535156 7.464844 Z M 24.535156 7.464844 "/>
<path style=" stroke:none;fill-rule:nonzero;fill:rgb(0%,0%,0%);fill-opacity:1;" d="M 4.667969 27.332031 C 4.132812 26.800781 4.132812 26 4.667969 25.464844 L 5.601562 24.535156 C 6.132812 24 6.933594 24 7.464844 24.535156 C 8 25.066406 8 25.867188 7.464844 26.398438 L 6.535156 27.332031 C 6 27.867188 5.199219 27.867188 4.667969 27.332031 Z M 4.667969 27.332031 "/>
<path style=" stroke:none;fill-rule:nonzero;fill:rgb(0%,0%,0%);fill-opacity:1;" d="M 25.332031 16 C 25.332031 21.15625 21.15625 25.332031 16 25.332031 C 10.84375 25.332031 6.667969 21.15625 6.667969 16 C 6.667969 10.84375 10.84375 6.667969 16 6.667969 C 21.15625 6.667969 25.332031 10.84375 25.332031 16 Z M 25.332031 16 "/>
</g>
</svg>
